<svg width="25" height="24" viewBox="0 0 25 24" fill="none" xmlns="http://www.w3.org/2000/svg">
  <g clip-path="url(#clip0_2242_7342)">
    <path d="M21.5658 0H3.54163C1.88255 0 0.537598 1.34315 0.537598 3V21C0.537598 22.6569 1.88255 24 3.54163 24H21.5658C23.2249 24 24.5699 22.6569 24.5699 21V3C24.5699 1.34315 23.2249 0 21.5658 0Z" fill="#E5F6F2" />
    <path d="M8.35734 9.99301H9.46454V11.0987C9.46454 11.1276 9.49351 11.1501 9.52891 11.1501H10.3014C10.3368 11.1501 10.3657 11.1276 10.3657 11.0971V9.99301H11.4729C11.5019 9.99301 11.5244 9.96408 11.5244 9.92872V9.15729C11.5244 9.12194 11.5019 9.09301 11.4713 9.09301H10.3657V7.98729C10.3657 7.95836 10.3368 7.93586 10.3014 7.93586H9.52891C9.49351 7.93586 9.46454 7.95836 9.46454 7.98729V9.09301H8.35734C8.32837 9.09301 8.30584 9.12194 8.30584 9.15729V9.92872C8.30584 9.96408 8.32837 9.99301 8.35734 9.99301ZM13.6359 9.99301H16.7515C16.7804 9.99301 16.803 9.96408 16.803 9.92872V9.15729C16.803 9.12194 16.7804 9.09301 16.7499 9.09301H13.6359C13.6069 9.09301 13.5844 9.12194 13.5844 9.15729V9.92872C13.5844 9.96408 13.6069 9.99301 13.6359 9.99301ZM13.6359 14.2519H16.7515C16.7804 14.2519 16.803 14.223 16.803 14.1876V13.4162C16.803 13.3809 16.7804 13.3519 16.7499 13.3519H13.6359C13.6069 13.3519 13.5844 13.3809 13.5844 13.4162V14.1876C13.5844 14.223 13.6069 14.2519 13.6359 14.2519ZM13.6359 15.9234H16.7515C16.7804 15.9234 16.803 15.8944 16.803 15.8591V15.0876C16.803 15.0523 16.7804 15.0234 16.7499 15.0234H13.6359C13.6069 15.0234 13.5844 15.0523 13.5844 15.0876V15.8591C13.5844 15.8944 13.6069 15.9234 13.6359 15.9234ZM10.4864 14.6216L11.4713 13.4178C11.5405 13.3343 11.4826 13.2073 11.3764 13.2073H10.5589C10.5219 13.2073 10.4864 13.2234 10.4639 13.2539L9.91675 13.9225L9.36959 13.2539C9.35808 13.2397 9.34363 13.2282 9.32724 13.2202C9.31084 13.2121 9.2929 13.2077 9.27464 13.2073H8.4555C8.34929 13.2073 8.29136 13.3343 8.36056 13.4178L9.34545 14.6216L8.33642 15.8559C8.26561 15.9394 8.32354 16.0664 8.42976 16.0664H9.24728C9.2843 16.0664 9.3197 16.0503 9.34223 16.0198L9.91353 15.3207L10.4848 16.0198C10.509 16.0487 10.5444 16.0664 10.5798 16.0664H11.3973C11.5035 16.0664 11.5615 15.9394 11.4923 15.8559L10.4864 14.6216ZM18.4766 5.57336H6.63216C6.34732 5.57336 6.11719 5.80319 6.11719 6.08765V17.9162C6.11719 18.2007 6.34732 18.4305 6.63216 18.4305H18.4766C18.7615 18.4305 18.9916 18.2007 18.9916 17.9162V6.08765C18.9916 5.80319 18.7615 5.57336 18.4766 5.57336ZM17.8973 17.3376H7.21151V6.66622H17.8973V17.3376Z" fill="#00A881" />
  </g>
  <defs>
    <clipPath id="clip0_2242_7342">
      <rect width="24.0323" height="24" fill="white" transform="translate(0.537598)" />
    </clipPath>
  </defs>
</svg>