<svg width="25" height="24" viewBox="0 0 25 24" fill="none" xmlns="http://www.w3.org/2000/svg">
  <g clip-path="url(#clip0_2242_7332)">
    <path d="M21.3075 0H3.28333C1.62425 0 0.279297 1.34315 0.279297 3V21C0.279297 22.6569 1.62425 24 3.28333 24H21.3075C22.9666 24 24.3116 22.6569 24.3116 21V3C24.3116 1.34315 22.9666 0 21.3075 0Z" fill="#FEF0E9" />
    <g clip-path="url(#clip1_2242_7332)">
      <path d="M17.8086 8.40963L14.3454 4.95106C14.2488 4.85463 14.1185 4.79999 13.9817 4.79999H7.14535C6.8605 4.79999 6.63037 5.02981 6.63037 5.31427V18.6857C6.63037 18.9702 6.8605 19.2 7.14535 19.2H17.4449C17.7297 19.2 17.9599 18.9702 17.9599 18.6857V8.77445C17.9599 8.63785 17.9051 8.50606 17.8086 8.40963ZM16.7722 9.0107H13.7435V5.98606L16.7722 9.0107ZM16.8012 18.0428H7.78907V5.95713H12.6492V9.42856C12.6492 9.60758 12.7204 9.77927 12.8471 9.90586C12.9739 10.0324 13.1458 10.1036 13.3251 10.1036H16.8012V18.0428ZM12.1664 13.7036H9.20526C9.13445 13.7036 9.07651 13.7614 9.07651 13.8321V14.6036C9.07651 14.6743 9.13445 14.7321 9.20526 14.7321H12.1664C12.2372 14.7321 12.2951 14.6743 12.2951 14.6036V13.8321C12.2951 13.7614 12.2372 13.7036 12.1664 13.7036ZM9.07651 11.6464V12.4178C9.07651 12.4886 9.13445 12.5464 9.20526 12.5464H15.385C15.4558 12.5464 15.5137 12.4886 15.5137 12.4178V11.6464C15.5137 11.5757 15.4558 11.5178 15.385 11.5178H9.20526C9.13445 11.5178 9.07651 11.5757 9.07651 11.6464Z" fill="#FF8853" />
    </g>
  </g>
  <defs>
    <clipPath id="clip0_2242_7332">
      <rect width="24.0323" height="24" fill="white" transform="translate(0.279297)" />
    </clipPath>
    <clipPath id="clip1_2242_7332">
      <rect width="14.4194" height="14.4" fill="white" transform="translate(5.08594 4.79999)" />
    </clipPath>
  </defs>
</svg>