<svg width="25" height="24" viewBox="0 0 25 24" fill="none" xmlns="http://www.w3.org/2000/svg">
  <g clip-path="url(#clip0_2242_7352)">
    <path d="M21.8236 0H3.79944C2.14036 0 0.79541 1.34315 0.79541 3V21C0.79541 22.6569 2.14036 24 3.79944 24H21.8236C23.4827 24 24.8277 22.6569 24.8277 21V3C24.8277 1.34315 23.4827 0 21.8236 0Z" fill="#EBE5F6" />
    <path d="M18.7344 8.56516H12.9571L11.0693 6.76195C11.0453 6.73949 11.0137 6.72687 10.9808 6.72659H6.88998C6.60513 6.72659 6.375 6.95641 6.375 7.24088V16.7552C6.375 17.0396 6.60513 17.2695 6.88998 17.2695H18.7344C19.0193 17.2695 19.2494 17.0396 19.2494 16.7552V9.07945C19.2494 8.79499 19.0193 8.56516 18.7344 8.56516ZM18.0907 16.1123H7.5337V7.88374H10.5672L12.492 9.72231H18.0907V16.1123Z" fill="#6838B7" />
  </g>
  <defs>
    <clipPath id="clip0_2242_7352">
      <rect width="24.0323" height="24" fill="white" transform="translate(0.79541)" />
    </clipPath>
  </defs>
</svg>