<svg width="25" height="24" viewBox="0 0 25 24" fill="none" xmlns="http://www.w3.org/2000/svg">
  <g clip-path="url(#clip0_2242_7322)">
    <path d="M21.0497 0H3.02552C1.36644 0 0.0214844 1.34315 0.0214844 3V21C0.0214844 22.6569 1.36644 24 3.02552 24H21.0497C22.7088 24 24.0537 22.6569 24.0537 21V3C24.0537 1.34315 22.7088 0 21.0497 0Z" fill="#0081F6" fill-opacity="0.12" />
    <path d="M17.6136 16.0416C17.31 15.3235 16.8695 14.6712 16.3165 14.1211C15.7652 13.5693 15.1121 13.1295 14.3934 12.8257C14.3869 12.8225 14.3805 12.8209 14.3741 12.8177C15.3767 12.0945 16.0284 10.9164 16.0284 9.58731C16.0284 7.38552 14.2421 5.60159 12.0373 5.60159C9.8326 5.60159 8.04628 7.38552 8.04628 9.58731C8.04628 10.9164 8.69804 12.0945 9.70064 12.8193C9.6942 12.8225 9.68777 12.8241 9.68133 12.8273C8.96036 13.1311 8.31342 13.5666 7.75821 14.1227C7.20575 14.6732 6.76528 15.3254 6.46111 16.0432C6.1623 16.7459 6.00114 17.4993 5.98637 18.2627C5.98594 18.2798 5.98895 18.2969 5.99523 18.3129C6.00151 18.3288 6.01092 18.3434 6.02292 18.3557C6.03492 18.3679 6.04926 18.3777 6.06509 18.3844C6.08092 18.391 6.09793 18.3945 6.11511 18.3945H7.08069C7.1515 18.3945 7.20783 18.3382 7.20944 18.2691C7.24162 17.0284 7.74051 15.8664 8.62241 14.9857C9.53488 14.0745 10.7467 13.573 12.0373 13.573C13.328 13.573 14.5398 14.0745 15.4523 14.9857C16.3342 15.8664 16.8331 17.0284 16.8653 18.2691C16.8669 18.3398 16.9232 18.3945 16.994 18.3945H17.9596C17.9768 18.3945 17.9938 18.391 18.0096 18.3844C18.0254 18.3777 18.0398 18.3679 18.0518 18.3557C18.0638 18.3434 18.0732 18.3288 18.0795 18.3129C18.0857 18.2969 18.0888 18.2798 18.0883 18.2627C18.0722 17.4945 17.9129 16.7471 17.6136 16.0416ZM12.0373 12.3516C11.2987 12.3516 10.6035 12.0639 10.0804 11.5416C9.55741 11.0193 9.26935 10.325 9.26935 9.58731C9.26935 8.84963 9.55741 8.15534 10.0804 7.63302C10.6035 7.1107 11.2987 6.82302 12.0373 6.82302C12.776 6.82302 13.4712 7.1107 13.9943 7.63302C14.5173 8.15534 14.8054 8.84963 14.8054 9.58731C14.8054 10.325 14.5173 11.0193 13.9943 11.5416C13.4712 12.0639 12.776 12.3516 12.0373 12.3516Z" fill="#1B77C5" />
  </g>
  <defs>
    <clipPath id="clip0_2242_7322">
      <rect width="24.0323" height="24" fill="white" transform="translate(0.0214844)" />
    </clipPath>
  </defs>
</svg>